<svg width="32" height="32" viewBox="0 0 32 32" fill="none" xmlns="http://www.w3.org/2000/svg">
<path d="M16 0C7.163 0 0 7.163 0 16C0 24.837 7.163 32 16 32C24.837 32 32 24.837 32 16C32 7.163 24.837 0 16 0ZM29.949 15H27.949C27.468 9.172 22.828 4.532 17 4.051V2.051C23.921 2.543 29.457 8.079 29.949 15ZM16 27C12.968 27 10.218 25.767 8.227 23.775L15.056 19.873C16.367 20.191 17.805 19.852 18.828 18.828C19.851 17.804 20.191 16.366 19.873 15.056L23.775 8.228C25.768 10.219 27 12.968 27 16C27 22.065 22.064 27 16 27ZM16 5C19.032 5 21.781 6.233 23.773 8.225L16.943 12.127C15.632 11.809 14.194 12.148 13.172 13.172C12.148 14.195 11.809 15.634 12.127 16.944L8.225 23.772C6.233 21.781 5 19.032 5 16C5 9.935 9.935 5 16 5ZM17.414 17.414C16.633 18.195 15.367 18.195 14.586 17.414C13.805 16.633 13.805 15.367 14.586 14.586C15.367 13.805 16.633 13.805 17.414 14.586C18.195 15.367 18.195 16.633 17.414 17.414ZM15 2.051V4.051C9.172 4.532 4.532 9.172 4.051 15H2.051C2.543 8.079 8.079 2.543 15 2.051ZM2.051 17H4.051C4.532 22.828 9.172 27.468 15 27.949V29.949C8.079 29.457 2.543 23.921 2.051 17ZM17 29.949V27.949C22.828 27.468 27.468 22.828 27.949 17H29.949C29.457 23.921 23.921 29.457 17 29.949Z" fill="white"/>
</svg>
